<?xml version="1.0" standalone="no"?>
<!DOCTYPE svg PUBLIC "-//W3C//DTD SVG 20010904//EN"
 "http://www.w3.org/TR/2001/REC-SVG-20010904/DTD/svg10.dtd">
<svg version="1.0" xmlns="http://www.w3.org/2000/svg"
 width="640.000000pt" height="640.000000pt" viewBox="0 0 640.000000 640.000000"
 preserveAspectRatio="xMidYMid meet">
<metadata>
Created by potrace 1.14, written by Peter Selinger 2001-2017
</metadata>
<g transform="translate(0.000000,640.000000) scale(0.100000,-0.100000)"
fill="#000000" stroke="none">
<path d="M2999 6396 c-2 -2 -42 -7 -89 -10 -342 -28 -750 -142 -1090 -303
-492 -235 -904 -580 -1223 -1026 -323 -451 -531 -1012 -585 -1577 -9 -94 -8
-495 1 -575 14 -117 28 -221 37 -260 5 -22 11 -56 14 -75 3 -19 15 -71 26
-115 12 -44 23 -89 26 -100 23 -110 145 -428 226 -589 97 -193 287 -490 369
-576 8 -8 27 -33 44 -55 43 -58 274 -291 352 -355 36 -30 71 -60 77 -65 27
-26 170 -128 261 -188 242 -158 533 -295 800 -377 39 -12 81 -25 95 -30 57
-20 302 -72 400 -86 19 -2 49 -6 65 -9 132 -20 534 -27 685 -12 745 76 1439
398 1950 907 75 74 150 152 168 172 349 408 591 884 710 1398 24 101 31 142
51 275 36 246 36 611 0 870 -12 90 -58 322 -70 353 -5 12 -11 35 -14 50 -9 51
-96 304 -141 410 -101 236 -231 463 -373 656 -336 454 -800 819 -1321 1039
-266 112 -613 206 -860 232 -36 4 -78 9 -95 12 -35 5 -491 13 -496 9z"/>
</g>
</svg>
